<?xml version="1.0" encoding="UTF-8" standalone="no"?>
<!-- Created with Inkscape (http://www.inkscape.org/) -->

<svg
   width="160.9126mm"
   height="173.46979mm"
   viewBox="0 0 160.9126 173.46979"
   version="1.1"
   id="svg1"
   inkscape:version="1.3.2 (091e20e, 2023-11-25, custom)"
   sodipodi:docname="avatar_project.svg"
   xmlns:inkscape="http://www.inkscape.org/namespaces/inkscape"
   xmlns:sodipodi="http://sodipodi.sourceforge.net/DTD/sodipodi-0.dtd"
   xmlns="http://www.w3.org/2000/svg"
   xmlns:svg="http://www.w3.org/2000/svg">
  <sodipodi:namedview
     id="namedview1"
     pagecolor="#ffffff"
     bordercolor="#000000"
     borderopacity="0.25"
     inkscape:showpageshadow="2"
     inkscape:pageopacity="0.0"
     inkscape:pagecheckerboard="0"
     inkscape:deskcolor="#d1d1d1"
     inkscape:document-units="mm"
     inkscape:zoom="0.4894542"
     inkscape:cx="693.62977"
     inkscape:cy="832.56003"
     inkscape:window-width="1920"
     inkscape:window-height="991"
     inkscape:window-x="-9"
     inkscape:window-y="-9"
     inkscape:window-maximized="1"
     inkscape:current-layer="layer1" />
  <defs
     id="defs1" />
  <g
     inkscape:label="Camada 1"
     inkscape:groupmode="layer"
     id="layer1"
     transform="translate(-16.59171,-92.437154)">
    <path
       style="fill:#35621f;fill-opacity:1;stroke-width:0.282528"
       id="path1"
       sodipodi:type="arc"
       sodipodi:cx="264.0376"
       sodipodi:cy="-116.13118"
       sodipodi:rx="123.50365"
       sodipodi:ry="61.802929"
       sodipodi:start="1.568116"
       sodipodi:end="4.7192279"
       sodipodi:arc-type="slice"
       d="m 264.36863,-54.328473 a 123.50365,61.802929 0 0 1 -107.31874,-30.92762 123.50365,61.802929 0 0 1 0.2575,-61.972547 123.50365,61.802929 0 0 1 107.57483,-30.70402 l -0.84462,61.80148 z"
       inkscape:transform-center-x="-8.3996002"
       inkscape:transform-center-y="-58.054388"
       transform="matrix(-0.00161785,0.99999869,-0.99998341,-0.00576098,0,0)"
       inkscape:export-filename="avatar.svg"
       inkscape:export-xdpi="27.370001"
       inkscape:export-ydpi="27.370001" />
    <path
       style="fill:#407f20;fill-opacity:1;stroke-width:0.282528"
       id="path1-5"
       sodipodi:type="arc"
       sodipodi:cx="264.60364"
       sodipodi:cy="-115.96175"
       sodipodi:rx="123.50365"
       sodipodi:ry="61.802929"
       sodipodi:start="1.568116"
       sodipodi:end="3.9971679"
       sodipodi:arc-type="arc"
       d="m 264.93467,-54.159039 a 123.50365,61.802929 0 0 1 -115.96329,-40.091832 123.50365,61.802929 0 0 1 34.6405,-68.368889"
       inkscape:transform-center-x="-8.3996002"
       inkscape:transform-center-y="-58.054388"
       transform="matrix(-0.00161785,0.99999869,-0.99998341,-0.00576098,0,0)"
       sodipodi:open="true" />
    <path
       style="fill:#63ac3d;fill-opacity:1;stroke-width:0.140414"
       id="path1-2"
       sodipodi:type="arc"
       sodipodi:cx="-235.06131"
       sodipodi:cy="-84.049408"
       sodipodi:rx="28.65167"
       sodipodi:ry="65.800919"
       sodipodi:start="6.2828149"
       sodipodi:end="1.5707963"
       sodipodi:arc-type="slice"
       d="m -206.40964,-84.073781 a 28.65167,65.800919 0 0 1 -8.38813,46.54403 28.65167,65.800919 0 0 1 -20.26354,19.281262 v -65.800919 z"
       inkscape:transform-center-x="-8.6539464"
       inkscape:transform-center-y="13.653987"
       transform="matrix(0.00704759,-0.99997517,-0.99999107,-0.00422517,0,0)" />
    <path
       style="fill:#46792b;fill-opacity:1;stroke-width:0.0980574"
       id="path1-2-6"
       sodipodi:type="arc"
       sodipodi:cx="235.32582"
       sodipodi:cy="-80.158424"
       sodipodi:rx="17.980734"
       sodipodi:ry="51.134853"
       sodipodi:start="6.2828149"
       sodipodi:end="1.5707963"
       sodipodi:arc-type="slice"
       d="m 253.30655,-80.177365 a 17.980734,51.134853 0 0 1 -5.26408,36.170045 17.980734,51.134853 0 0 1 -12.71665,14.983749 v -51.134853 z"
       inkscape:transform-center-x="-6.7251324"
       inkscape:transform-center-y="-8.5686344"
       transform="matrix(0.00872709,0.99996192,-0.99999418,0.00341201,0,0)" />
    <path
       style="fill:#427926;stroke-width:0.264583"
       id="path2"
       sodipodi:type="arc"
       sodipodi:cx="97.302254"
       sodipodi:cy="250.01276"
       sodipodi:rx="0.54056811"
       sodipodi:ry="0.54056811"
       sodipodi:start="1.5659258"
       sodipodi:end="4.7192279"
       sodipodi:arc-type="slice"
       d="m 97.304887,250.55332 a 0.54056811,0.54056811 0 0 1 -0.470517,-0.26983 0.54056811,0.54056811 0 0 1 5.34e-4,-0.54239 0.54056811,0.54056811 0 0 1 0.471047,-0.2689 l -0.0037,0.54056 z" />
    <path
       style="fill:#244013;fill-opacity:1;stroke-width:0.264583"
       id="path3"
       sodipodi:type="arc"
       sodipodi:cx="137.84293"
       sodipodi:cy="187.5486"
       sodipodi:rx="14.595339"
       sodipodi:ry="17.568462"
       sodipodi:start="0"
       sodipodi:end="5.8967385"
       sodipodi:arc-type="slice"
       d="m 152.43826,187.5486 a 14.595339,17.568462 0 0 1 -13.18745,17.48653 14.595339,17.568462 0 0 1 -15.73161,-14.11298 14.595339,17.568462 0 0 1 10.15246,-20.20925 14.595339,17.568462 0 0 1 17.69026,10.21415 l -13.51899,6.62155 z" />
    <path
       style="fill:#4f9c29;fill-opacity:1;stroke-width:0.292804"
       id="path4"
       sodipodi:type="arc"
       sodipodi:cx="101.98589"
       sodipodi:cy="124.33067"
       sodipodi:rx="18.468117"
       sodipodi:ry="31.89352"
       sodipodi:start="1.4227117"
       sodipodi:end="4.8471367"
       sodipodi:arc-type="arc"
       d="M 104.71075,155.87513 A 18.468117,31.89352 0 0 1 86.511801,141.73982 18.468117,31.89352 0 0 1 86.378734,107.27946 18.468117,31.89352 0 0 1 104.46691,92.72626"
       sodipodi:open="true" />
    <path
       style="fill:#4f9c29;fill-opacity:1;stroke-width:0.202427"
       id="path4-7"
       sodipodi:type="arc"
       sodipodi:cx="119.73018"
       sodipodi:cy="125.85716"
       sodipodi:rx="11.63767"
       sodipodi:ry="24.190424"
       sodipodi:start="1.4227117"
       sodipodi:end="4.8471367"
       sodipodi:arc-type="arc"
       d="m 121.44725,149.78283 a 11.63767,24.190424 0 0 1 -11.46806,-10.72127 11.63767,24.190424 0 0 1 -0.0838,-26.13731 11.63767,24.190424 0 0 1 11.39825,-11.03823"
       sodipodi:open="true" />
  </g>
</svg>
